<?xml version="1.0" standalone="no"?>
<!DOCTYPE svg PUBLIC "-//W3C//DTD SVG 20010904//EN"
 "http://www.w3.org/TR/2001/REC-SVG-20010904/DTD/svg10.dtd">
<svg version="1.0" xmlns="http://www.w3.org/2000/svg"
 width="953.000000pt" height="596.000000pt" viewBox="0 0 953.000000 596.000000"
 preserveAspectRatio="xMidYMid meet">

<g transform="translate(0.000000,596.000000) scale(0.100000,-0.100000)"
fill="#000000" stroke="none">
<path d="M0 2980 l0 -2980 4765 0 4765 0 0 2980 0 2980 -4765 0 -4765 0 0
-2980z m2278 2649 c20 -7 34 -21 41 -41 15 -42 15 -714 0 -756 -7 -20 -21 -34
-41 -41 -42 -15 -714 -15 -756 0 -20 7 -34 21 -41 41 -15 42 -15 714 0 756 6
19 21 35 37 41 38 13 720 14 760 0z m960 0 c20 -7 34 -21 41 -41 15 -42 15
-714 0 -756 -7 -20 -21 -34 -41 -41 -42 -15 -714 -15 -756 0 -20 7 -34 21 -41
41 -15 42 -15 714 0 756 6 19 21 35 37 41 38 13 720 14 760 0z m960 0 c20 -7
34 -21 41 -41 15 -42 15 -714 0 -756 -7 -20 -21 -34 -41 -41 -42 -15 -714 -15
-756 0 -20 7 -34 21 -41 41 -15 42 -15 714 0 756 6 19 21 35 37 41 38 13 720
14 760 0z m960 0 c20 -7 34 -21 41 -41 15 -42 15 -714 0 -756 -7 -20 -21 -34
-41 -41 -42 -15 -714 -15 -756 0 -20 7 -34 21 -41 41 -15 42 -15 714 0 756 6
19 21 35 37 41 38 13 720 14 760 0z m960 0 c20 -7 34 -21 41 -41 15 -42 15
-714 0 -756 -7 -20 -21 -34 -41 -41 -42 -15 -714 -15 -756 0 -20 7 -34 21 -41
41 -15 42 -15 714 0 756 6 19 21 35 37 41 38 13 720 14 760 0z m960 0 c20 -7
34 -21 41 -41 15 -42 15 -714 0 -756 -7 -20 -21 -34 -41 -41 -42 -15 -714 -15
-756 0 -20 7 -34 21 -41 41 -15 42 -15 714 0 756 6 19 21 35 37 41 38 13 720
14 760 0z m960 0 c20 -7 34 -21 41 -41 15 -42 15 -714 0 -756 -7 -20 -21 -34
-41 -41 -42 -15 -714 -15 -756 0 -20 7 -34 21 -41 41 -15 42 -15 714 0 756 6
19 21 35 37 41 38 13 720 14 760 0z m960 0 c20 -7 34 -21 41 -41 15 -42 15
-714 0 -756 -7 -20 -21 -34 -41 -41 -42 -15 -714 -15 -756 0 -20 7 -34 21 -41
41 -15 42 -15 714 0 756 6 19 21 35 37 41 38 13 720 14 760 0z m-7670 -31 c17
-17 17 -759 0 -776 -17 -17 -759 -17 -776 0 -17 17 -17 759 0 776 9 9 109 12
388 12 279 0 379 -3 388 -12z m2872 -1158 l0 -250 -1185 0 -1185 0 0 250 0
250 1185 0 1185 0 0 -250z m2460 0 l0 -250 -1210 0 -1210 0 0 250 0 250 1210
0 1210 0 0 -250z m2580 0 l0 -250 -1270 0 -1270 0 0 250 0 250 1270 0 1270 0
0 -250z m-7470 0 l0 -230 -715 0 -715 0 0 230 0 230 715 0 715 0 0 -230z
m-1000 -1320 l0 -1010 75 0 75 0 0 -490 0 -490 -68 0 c-42 0 -81 6 -99 15 -23
11 -37 13 -57 5 l-26 -10 0 81 c0 75 -2 81 -31 112 -25 27 -37 32 -64 29 -65
-8 -101 72 -54 119 15 15 30 20 55 17 28 -3 34 -1 34 14 0 14 -8 18 -41 18
-57 0 -99 -42 -99 -98 0 -54 7 -70 41 -87 25 -13 27 -18 19 -41 -6 -14 -10
-59 -10 -100 l0 -74 -100 0 -100 0 0 1500 0 1500 225 0 225 0 0 -1010z m320
10 l0 -1000 -150 0 -150 0 0 1000 0 1000 150 0 150 0 0 -1000z m320 -10 l0
-1010 75 0 75 0 0 -490 0 -490 -300 0 -300 0 0 490 0 490 75 0 75 0 0 1010 0
1010 150 0 150 0 0 -1010z m320 10 l0 -1000 -150 0 -150 0 0 1000 0 1000 150
0 150 0 0 -1000z m470 -500 l0 -1500 -300 0 -300 0 0 490 0 490 75 0 75 0 0
1010 0 1010 225 0 225 0 0 -1500z m490 490 l0 -1010 75 0 75 0 0 -490 0 -490
-300 0 -300 0 0 1500 0 1500 225 0 225 0 0 -1010z m320 10 l0 -1000 -150 0
-150 0 0 1000 0 1000 150 0 150 0 0 -1000z m320 -10 l0 -1010 75 0 75 0 0
-490 0 -490 -300 0 -300 0 0 490 0 490 75 0 75 0 0 1010 0 1010 150 0 150 0 0
-1010z m320 10 l0 -1000 -150 0 -150 0 0 1000 0 1000 150 0 150 0 0 -1000z
m320 -10 l0 -1010 75 0 75 0 0 -490 0 -490 -300 0 -300 0 0 490 0 490 75 0 75
0 0 1010 0 1010 150 0 150 0 0 -1010z m320 10 l0 -1000 -150 0 -150 0 0 1000
0 1000 150 0 150 0 0 -1000z m470 -500 l0 -1500 -300 0 -300 0 0 490 0 490 75
0 75 0 0 1010 0 1010 225 0 225 0 0 -1500z m490 490 l0 -1010 75 0 75 0 0
-490 0 -490 -300 0 -300 0 0 1500 0 1500 225 0 225 0 0 -1010z m320 10 l0
-1000 -150 0 -150 0 0 1000 0 1000 150 0 150 0 0 -1000z m320 -10 l0 -1010 75
0 75 0 0 -490 0 -490 -300 0 -300 0 0 490 0 490 75 0 75 0 0 1010 0 1010 150
0 150 0 0 -1010z m320 10 l0 -1000 -150 0 -150 0 0 1000 0 1000 150 0 150 0 0
-1000z m470 -500 l0 -1500 -300 0 -300 0 0 490 0 490 75 0 75 0 0 1010 0 1010
225 0 225 0 0 -1500z m490 490 l0 -1010 75 0 75 0 0 -490 0 -490 -300 0 -300
0 0 1500 0 1500 225 0 225 0 0 -1010z m320 10 l0 -1000 -150 0 -150 0 0 1000
0 1000 150 0 150 0 0 -1000z m320 -10 l0 -1010 75 0 75 0 0 -490 0 -490 -300
0 -300 0 0 490 0 490 75 0 75 0 0 1010 0 1010 150 0 150 0 0 -1010z m320 10
l0 -1000 -150 0 -150 0 0 1000 0 1000 150 0 150 0 0 -1000z m320 -10 l0 -1010
75 0 75 0 0 -490 0 -490 -300 0 -300 0 0 490 0 490 75 0 75 0 0 1010 0 1010
150 0 150 0 0 -1010z m320 10 l0 -1000 -150 0 -150 0 0 1000 0 1000 150 0 150
0 0 -1000z m470 -500 l0 -1500 -300 0 -300 0 0 490 0 490 75 0 75 0 0 1010 0
1010 225 0 225 0 0 -1500z m-8606 -1316 c14 -13 16 -48 16 -225 0 -133 4 -209
10 -209 6 0 10 45 10 114 0 107 1 116 22 130 30 21 44 20 68 -4 18 -18 20 -33
20 -130 0 -67 4 -110 10 -110 6 0 10 41 10 103 0 111 6 127 50 127 44 0 50
-16 50 -127 0 -62 4 -103 10 -103 6 0 10 30 10 70 0 57 4 74 20 90 24 24 38
25 69 4 22 -16 22 -18 19 -208 -3 -205 1 -184 -64 -306 -10 -19 -20 -63 -22
-97 l-4 -63 -159 0 -159 0 0 28 c0 55 -20 97 -66 140 -57 55 -94 130 -94 197
-1 65 -17 99 -60 128 -28 19 -35 29 -33 52 1 16 8 32 15 37 25 15 85 8 113
-14 26 -20 27 -23 21 -97 -3 -42 -8 -93 -12 -115 -7 -44 9 -43 21 1 4 16 11
153 14 306 5 231 9 279 21 287 23 15 57 12 74 -6z"/>
<path d="M1900 5410 c-146 -49 -280 -94 -297 -100 -31 -11 -33 -14 -33 -59 0
-26 -4 -51 -9 -56 -5 -6 -7 -68 -4 -142 6 -127 7 -133 27 -133 20 0 21 5 21
97 l0 98 138 3 137 3 0 -76 c0 -43 -4 -75 -10 -75 -5 0 -10 9 -10 20 0 12 -7
20 -16 20 -9 0 -18 -9 -21 -20 -3 -11 -9 -20 -14 -20 -5 0 -9 -7 -9 -15 0 -12
18 -15 100 -15 82 0 100 3 100 15 0 8 -4 15 -9 15 -5 0 -11 9 -14 20 -3 11
-12 20 -21 20 -9 0 -16 -8 -16 -20 0 -11 -4 -20 -10 -20 -6 0 -10 32 -10 75
l0 76 138 -3 137 -3 0 -98 c0 -92 1 -97 21 -97 20 0 21 7 27 138 4 85 3 138
-3 140 -6 2 -10 20 -10 39 0 21 -16 67 -40 115 -22 44 -40 86 -40 93 0 6 12
17 26 23 24 12 25 33 1 31 -7 0 -131 -41 -277 -89z m263 -37 c27 -57 33 -79
24 -85 -6 -4 -50 -8 -95 -8 -76 0 -84 2 -89 20 -5 18 -14 20 -103 20 -89 0
-98 -2 -103 -20 -5 -18 -14 -20 -78 -20 -40 0 -69 3 -65 8 6 6 448 159 467
161 3 1 22 -34 42 -76z m-228 -133 c4 -6 -10 -10 -35 -10 -25 0 -39 4 -35 10
3 6 19 10 35 10 16 0 32 -4 35 -10z m273 -57 c-3 -17 -27 -18 -311 -21 -302
-2 -307 -2 -307 18 0 20 6 20 311 20 290 0 310 -1 307 -17z"/>
<path d="M3090 5554 c0 -6 5 -15 12 -22 6 -6 9 -15 5 -19 -4 -4 -13 -1 -19 5
-18 18 -33 15 -18 -3 9 -11 10 -19 3 -26 -8 -8 -13 -7 -17 0 -4 6 -12 11 -19
11 -8 0 -8 -3 1 -12 18 -18 15 -43 -8 -63 l-20 -18 22 -24 22 -23 21 20 c24
23 45 25 64 8 10 -11 11 -8 6 15 -8 28 3 35 23 15 7 -7 12 -8 12 -2 0 6 -5 15
-12 22 -6 6 -9 15 -5 19 4 4 13 1 19 -5 20 -20 32 -13 13 8 -10 11 -14 20 -10
20 5 0 -2 11 -15 25 -13 14 -28 25 -33 25 -6 0 -19 7 -29 17 -10 9 -18 12 -18
7z"/>
<path d="M2974 5369 c-3 -6 3 -21 15 -32 16 -16 23 -19 33 -9 9 9 7 16 -7 32
-20 23 -31 25 -41 9z"/>
<path d="M2793 5350 c-12 -5 -33 -26 -47 -47 -29 -44 -63 -66 -123 -82 -26 -7
-53 -24 -72 -46 -27 -31 -31 -43 -31 -91 0 -69 17 -111 65 -157 53 -51 129
-75 186 -58 55 17 93 58 108 118 10 37 25 59 73 105 58 55 60 59 53 95 -9 50
-24 76 -40 70 -15 -6 -64 43 -58 59 4 12 -55 44 -79 43 -7 0 -23 -4 -35 -9z
m131 -132 c-4 -5 -19 3 -35 18 -15 15 -26 31 -23 36 4 5 19 -3 35 -18 15 -15
26 -31 23 -36z m-224 -154 c55 -51 59 -63 32 -87 -17 -16 -21 -13 -70 36 -50
50 -51 54 -36 75 8 12 17 22 20 22 3 0 27 -21 54 -46z"/>
<path d="M2934 5329 c-3 -6 3 -21 15 -32 16 -16 23 -19 33 -9 9 9 7 16 -7 32
-20 23 -31 25 -41 9z"/>
<path d="M3950 5355 c0 -10 7 -15 18 -13 21 4 19 22 -2 26 -10 2 -16 -3 -16
-13z"/>
<path d="M3835 5230 c3 -5 8 -10 11 -10 2 0 4 5 4 10 0 6 -5 10 -11 10 -5 0
-7 -4 -4 -10z"/>
<path d="M3790 5190 c0 -5 5 -10 11 -10 5 0 7 5 4 10 -3 6 -8 10 -11 10 -2 0
-4 -4 -4 -10z"/>
<path d="M3740 5140 c0 -5 5 -10 10 -10 6 0 10 5 10 10 0 6 -4 10 -10 10 -5 0
-10 -4 -10 -10z"/>
<path d="M3650 5050 c0 -5 5 -10 11 -10 5 0 7 5 4 10 -3 6 -8 10 -11 10 -2 0
-4 -4 -4 -10z"/>
<path d="M3605 5000 c3 -5 8 -10 11 -10 2 0 4 5 4 10 0 6 -5 10 -11 10 -5 0
-7 -4 -4 -10z"/>
<path d="M4434 5391 c-2 -2 -4 -87 -4 -188 0 -176 1 -183 20 -183 19 0 20 7
20 90 0 89 0 90 24 90 23 0 25 -5 28 -47 2 -27 8 -48 13 -48 6 0 11 21 13 48
2 32 8 47 17 47 9 0 15 -15 17 -47 4 -62 22 -62 26 -1 3 39 7 47 25 50 53 8
66 -1 69 -51 4 -58 22 -56 26 4 2 31 8 45 18 45 10 0 14 -12 14 -45 0 -38 3
-45 20 -45 17 0 20 7 20 45 0 33 4 45 15 45 11 0 15 -12 15 -45 0 -33 4 -45
15 -45 11 0 15 12 15 44 0 39 3 45 23 48 12 2 32 2 45 0 19 -4 22 -11 22 -48
0 -32 4 -44 15 -44 11 0 15 12 15 45 0 33 4 45 15 45 11 0 15 -12 15 -45 0
-33 4 -45 15 -45 11 0 15 12 15 45 0 41 2 45 25 45 25 0 25 -1 25 -90 0 -83 1
-90 20 -90 19 0 20 7 20 188 l0 187 -346 0 c-190 0 -348 -2 -350 -4z m99 -46
c-4 -15 -36 -12 -41 3 -3 9 3 13 19 10 13 -1 23 -7 22 -13z m77 -15 c0 -25 -4
-30 -25 -30 -21 0 -25 5 -25 30 0 25 4 30 25 30 21 0 25 -5 25 -30z m308 -2
l3 -28 -140 0 -141 0 0 23 c0 13 3 27 7 31 4 3 66 5 137 4 l131 -3 3 -27z m82
2 c0 -25 -4 -30 -25 -30 -21 0 -25 5 -25 30 0 25 4 30 25 30 21 0 25 -5 25
-30z m70 21 c0 -6 -5 -13 -10 -16 -15 -9 -43 3 -35 15 8 13 45 13 45 1z m-530
-41 c0 -5 -11 -10 -25 -10 -14 0 -25 5 -25 10 0 6 11 10 25 10 14 0 25 -4 25
-10z m530 0 c0 -5 -11 -10 -25 -10 -14 0 -25 5 -25 10 0 6 11 10 25 10 14 0
25 -4 25 -10z"/>
<path d="M5907 5412 c-20 -22 -21 -36 -4 -51 19 -15 73 39 55 57 -17 17 -32
15 -51 -6z"/>
<path d="M5811 5316 c-34 -35 -34 -56 -2 -56 22 0 85 65 77 79 -13 20 -42 11
-75 -23z"/>
<path d="M5729 5234 c-23 -25 -24 -26 -5 -40 17 -12 22 -12 38 3 20 18 21 54
2 60 -5 2 -21 -8 -35 -23z"/>
<path d="M5660 5165 c-26 -27 -18 -50 15 -43 29 5 42 35 24 53 -14 14 -18 13
-39 -10z"/>
<path d="M5571 5076 c-40 -41 -41 -43 -23 -59 17 -16 20 -15 55 21 20 21 37
45 37 54 0 32 -28 26 -69 -16z"/>
<path d="M5433 4973 l-43 -24 37 -45 c21 -24 40 -44 44 -44 3 0 19 19 34 41
l27 42 -28 27 -29 27 -42 -24z"/>
<path d="M6520 5492 l0 -58 61 -12 c46 -8 81 -24 135 -61 49 -33 89 -52 119
-57 28 -4 45 -11 45 -20 0 -8 -44 -60 -98 -117 -103 -109 -132 -148 -152 -209
l-12 -38 -79 0 -79 0 0 -30 0 -30 115 0 115 0 0 30 c0 20 -5 30 -15 30 -41 0
19 103 126 215 85 90 139 174 139 218 0 20 -4 21 -32 6 -16 -9 -35 -8 -75 1
-44 9 -66 23 -116 70 -50 46 -167 120 -192 120 -3 0 -5 -26 -5 -58z"/>
<path d="M7964 5539 c-3 -6 -2 -15 4 -21 13 -13 32 -2 32 18 0 16 -26 19 -36
3z"/>
<path d="M7866 5451 c-27 -28 -28 -31 -12 -47 17 -16 19 -15 49 14 26 26 28
33 17 46 -17 22 -22 20 -54 -13z"/>
<path d="M7763 5347 c-20 -21 -20 -23 -4 -39 17 -17 19 -17 39 5 22 23 22 24
4 40 -17 16 -20 16 -39 -6z"/>
<path d="M7666 5251 c-15 -16 -15 -22 -4 -40 12 -20 13 -20 40 6 25 24 26 27
10 39 -23 18 -26 17 -46 -5z"/>
<path d="M7552 5137 c-41 -42 -42 -44 -24 -60 17 -16 21 -14 60 26 41 42 42
44 24 60 -17 16 -21 14 -60 -26z"/>
<path d="M7410 5013 c-30 -18 -65 -33 -79 -33 -23 0 -21 -5 34 -60 l58 -59 17
50 c9 27 24 57 32 67 26 30 28 39 10 54 -15 13 -23 11 -72 -19z"/>
<path d="M8580 5453 c0 -22 81 -446 87 -452 2 -3 24 -5 48 -6 39 -2 46 1 50
19 7 31 75 438 75 448 0 18 -29 7 -36 -14 l-7 -23 -8 23 c-10 26 -24 28 -38 5
-9 -17 -11 -17 -24 1 -17 23 -37 14 -38 -17 l0 -22 -9 21 c-12 32 -29 39 -44
19 -12 -16 -13 -16 -19 -1 -8 21 -37 21 -37 -1z"/>
<path d="M8325 5331 c-18 -4 -31 -14 -33 -25 -4 -17 1 -18 49 -12 61 8 69 12
69 32 0 15 -30 17 -85 5z"/>
<path d="M8344 5249 c-35 -8 -41 -13 -37 -30 3 -11 11 -18 18 -15 7 2 33 8 59
11 36 6 46 11 44 24 -4 19 -29 22 -84 10z"/>
<path d="M8368 5168 c-28 -6 -48 -16 -48 -23 0 -23 15 -25 73 -14 46 10 54 14
50 30 -6 21 -7 21 -75 7z"/>
<path d="M8393 5087 c-43 -8 -53 -14 -53 -30 0 -17 5 -19 46 -12 26 3 53 9 60
12 14 5 20 44 7 42 -5 -1 -32 -6 -60 -12z"/>
<path d="M596 5374 c-8 -20 -8 -238 0 -258 3 -9 15 -16 25 -16 18 0 19 9 19
145 0 136 -1 145 -19 145 -10 0 -22 -7 -25 -16z"/>
<path d="M730 5251 c0 -111 2 -131 15 -131 13 0 15 18 13 127 -2 90 -7 128
-15 131 -10 3 -13 -27 -13 -127z"/>
<path d="M860 5244 c0 -88 3 -115 13 -112 8 3 13 38 15 116 2 95 0 112 -13
112 -13 0 -15 -18 -15 -116z"/>
<path d="M980 5276 c0 -55 -3 -64 -20 -69 -24 -6 -26 -29 -5 -47 13 -10 19
-10 35 5 17 15 20 31 20 97 0 63 -3 78 -15 78 -12 0 -15 -14 -15 -64z"/>
<path d="M1100 5259 c0 -62 2 -70 15 -59 10 8 15 31 15 71 0 46 -3 59 -15 59
-12 0 -15 -15 -15 -71z"/>
<path d="M1230 5245 c0 -56 3 -65 18 -65 29 0 42 21 42 65 0 44 -13 65 -42 65
-15 0 -18 -9 -18 -65z"/>
<path d="M1150 5244 c-11 -12 -10 -18 3 -31 8 -9 23 -13 31 -10 21 8 21 43 0
51 -21 8 -20 8 -34 -10z"/>
<path d="M770 4440 c0 -48 1 -50 28 -50 35 0 52 16 52 50 0 34 -17 50 -52 50
-27 0 -28 -2 -28 -50z m58 -3 c3 -22 -1 -27 -17 -27 -17 0 -21 6 -21 31 0 24
4 30 18 27 10 -2 18 -14 20 -31z"/>
<path d="M990 4440 c0 -27 5 -50 10 -50 6 0 10 9 10 20 0 11 4 20 10 20 5 0
15 -9 22 -20 18 -28 43 -27 28 1 -9 15 -8 24 1 35 17 21 -6 44 -47 44 l-34 0
0 -50z m60 20 c0 -5 -9 -10 -20 -10 -11 0 -20 5 -20 10 0 6 9 10 20 10 11 0
20 -4 20 -10z"/>
<path d="M1210 4440 c0 -51 19 -72 21 -22 1 27 1 27 8 3 10 -37 29 -36 40 1
l9 33 1 -32 c2 -54 21 -37 21 17 0 57 -23 70 -41 23 l-11 -28 -10 28 c-17 47
-38 34 -38 -23z"/>
<path d="M872 4453 c-15 -28 3 -65 29 -61 30 4 47 33 33 56 -15 24 -51 27 -62
5z m48 -23 c0 -11 -7 -20 -15 -20 -8 0 -15 9 -15 20 0 11 7 20 15 20 8 0 15
-9 15 -20z"/>
<path d="M1094 4456 c-12 -32 0 -61 29 -64 32 -4 37 15 5 21 -20 4 -19 4 5 6
28 1 35 19 15 39 -16 16 -47 15 -54 -2z m43 -12 c-3 -3 -12 -4 -19 -1 -8 3 -5
6 6 6 11 1 17 -2 13 -5z"/>
<path d="M1330 4430 c0 -22 5 -40 10 -40 6 0 10 18 10 40 0 22 -4 40 -10 40
-5 0 -10 -18 -10 -40z"/>
<path d="M683 1463 c-54 -83 -54 -93 -3 -93 33 0 40 -3 40 -20 0 -13 7 -20 20
-20 13 0 20 7 20 19 0 10 7 21 15 25 8 3 15 10 15 16 0 5 -7 10 -15 10 -12 0
-15 14 -15 65 0 87 -20 87 -77 -2z m37 -28 c0 -31 -3 -35 -25 -35 l-25 0 22
35 c13 19 24 35 26 35 1 0 2 -16 2 -35z"/>
<path d="M1110 1431 l0 -101 40 0 c23 0 53 6 69 14 53 28 67 106 28 152 -19
22 -34 28 -80 32 l-57 4 0 -101z m105 55 c25 -18 25 -78 0 -106 -10 -11 -31
-20 -47 -20 l-28 0 0 70 0 70 28 0 c16 0 37 -6 47 -14z"/>
<path d="M1361 1503 c-7 -15 -25 -43 -42 -64 -42 -54 -39 -69 16 -69 38 0 45
-3 45 -20 0 -11 7 -20 15 -20 8 0 15 9 15 19 0 10 7 21 15 25 8 3 15 10 15 16
0 5 -7 10 -15 10 -12 0 -15 14 -15 65 0 56 -2 65 -18 65 -11 0 -24 -12 -31
-27z m19 -68 c0 -32 -2 -35 -30 -35 l-29 0 22 35 c28 44 37 44 37 0z"/>
<path d="M1770 1430 l0 -100 55 0 c42 0 55 3 55 15 0 10 -11 15 -35 15 -32 0
-35 2 -35 30 0 27 3 30 30 30 20 0 30 5 30 15 0 10 -10 15 -30 15 -25 0 -30 4
-30 25 0 22 4 25 35 25 24 0 35 5 35 15 0 12 -13 15 -55 15 l-55 0 0 -100z"/>
<path d="M1979 1508 c-7 -13 -27 -43 -46 -67 -45 -60 -43 -71 12 -71 38 0 45
-3 45 -20 0 -11 7 -20 15 -20 8 0 15 9 15 20 0 11 7 20 15 20 8 0 15 7 15 15
0 8 -7 15 -15 15 -12 0 -15 14 -15 65 0 50 -3 65 -15 65 -8 0 -20 -10 -26 -22z
m11 -73 c0 -31 -3 -35 -25 -35 -14 0 -25 2 -25 5 0 7 42 65 47 65 2 0 3 -16 3
-35z"/>
<path d="M2420 1430 c0 -82 3 -100 15 -100 11 0 15 11 15 39 0 37 2 40 32 43
46 4 49 28 4 28 -33 0 -36 2 -36 30 0 28 3 30 35 30 24 0 35 5 35 15 0 11 -12
15 -50 15 l-50 0 0 -100z"/>
<path d="M2611 1503 c-7 -15 -25 -43 -42 -64 -42 -54 -39 -69 16 -69 38 0 45
-3 45 -20 0 -11 7 -20 15 -20 8 0 15 9 15 19 0 10 7 21 15 25 8 3 15 10 15 16
0 5 -7 10 -15 10 -12 0 -15 14 -15 65 0 56 -2 65 -18 65 -11 0 -24 -12 -31
-27z m19 -68 c0 -32 -2 -35 -30 -35 l-29 0 22 35 c28 44 37 44 37 0z"/>
<path d="M3074 1520 c-33 -13 -54 -50 -54 -95 0 -68 50 -105 125 -91 34 7 35
8 35 56 l0 50 -35 0 c-24 0 -35 -5 -35 -15 0 -8 9 -15 20 -15 15 0 20 -7 20
-25 0 -22 -4 -25 -34 -25 -61 0 -89 77 -45 121 16 16 30 20 60 17 31 -3 39 0
37 12 -4 18 -61 24 -94 10z"/>
<path d="M3253 1463 c-54 -83 -54 -93 -3 -93 33 0 40 -3 40 -20 0 -13 7 -20
20 -20 13 0 20 7 20 19 0 10 7 21 15 25 8 3 15 10 15 16 0 5 -7 10 -15 10 -12
0 -15 14 -15 65 0 87 -20 87 -77 -2z m37 -28 c0 -31 -3 -35 -25 -35 l-25 0 22
35 c13 19 24 35 26 35 1 0 2 -16 2 -35z"/>
</g>
</svg>
